<svg width="1024" height="1024" viewBox="0 0 1024 1024" fill="none"
  xmlns="http://www.w3.org/2000/svg">
  <defs>
    <linearGradient id="panel" x1="196" y1="140" x2="828" y2="884" gradientUnits="userSpaceOnUse">
      <stop offset="0" stop-color="#111827" />
      <stop offset="0.5" stop-color="#0B1220" />
      <stop offset="1" stop-color="#020617" />
    </linearGradient>
    <linearGradient id="rim" x1="220" y1="180" x2="804" y2="844" gradientUnits="userSpaceOnUse">
      <stop offset="0" stop-color="#334155" />
      <stop offset="1" stop-color="#0F172A" />
    </linearGradient>
    <filter id="shadow" x="108" y="120" width="808" height="784" filterUnits="userSpaceOnUse"
      color-interpolation-filters="sRGB">
      <feFlood flood-opacity="0" result="BackgroundImageFix" />
      <feColorMatrix in="SourceAlpha" type="matrix"
        values="0 0 0 0 0 0 0 0 0 0 0 0 0 0 0 0 0 0 127 0" result="hardAlpha" />
      <feOffset dy="20" />
      <feGaussianBlur stdDeviation="28" />
      <feComposite in2="hardAlpha" operator="out" />
      <feColorMatrix type="matrix" values="0 0 0 0 0 0 0 0 0 0 0 0 0 0 0 0 0 0 0.45 0" />
      <feBlend mode="normal" in2="BackgroundImageFix" result="effect1_dropShadow_0_1" />
      <feBlend mode="normal" in="SourceGraphic" in2="effect1_dropShadow_0_1" result="shape" />
    </filter>
    <filter id="glow-red" x="124" y="332" width="280" height="280" filterUnits="userSpaceOnUse"
      color-interpolation-filters="sRGB">
      <feGaussianBlur stdDeviation="34" />
    </filter>
    <filter id="glow-amber" x="372" y="332" width="280" height="280" filterUnits="userSpaceOnUse"
      color-interpolation-filters="sRGB">
      <feGaussianBlur stdDeviation="34" />
    </filter>
    <filter id="glow-green" x="620" y="332" width="280" height="280" filterUnits="userSpaceOnUse"
      color-interpolation-filters="sRGB">
      <feGaussianBlur stdDeviation="34" />
    </filter>
  </defs>

  <rect x="96" y="96" width="832" height="832" rx="220" fill="#020617" />
  <g filter="url(#shadow)">
    <rect x="164" y="172" width="696" height="632" rx="152" fill="url(#panel)" />
    <rect x="184" y="192" width="656" height="592" rx="132" stroke="url(#rim)" stroke-width="20" />

    <rect x="252" y="270" width="520" height="64" rx="32" fill="rgba(255,255,255,0.08)" />
    <rect x="252" y="652" width="520" height="40" rx="20" fill="rgba(255,255,255,0.06)" />

    <circle cx="264" cy="472" r="72" fill="#F04438" fill-opacity="0.28" filter="url(#glow-red)" />
    <circle cx="512" cy="472" r="72" fill="#F59E0B" fill-opacity="0.3" filter="url(#glow-amber)" />
    <circle cx="760" cy="472" r="72" fill="#22C55E" fill-opacity="0.28" filter="url(#glow-green)" />

    <circle cx="264" cy="472" r="88" fill="#7F1D1D" />
    <circle cx="264" cy="472" r="62" fill="#F04438" />
    <circle cx="264" cy="472" r="34" fill="#FECACA" fill-opacity="0.72" />

    <circle cx="512" cy="472" r="88" fill="#78350F" />
    <circle cx="512" cy="472" r="62" fill="#F59E0B" />
    <circle cx="512" cy="472" r="34" fill="#FEF3C7" fill-opacity="0.78" />

    <circle cx="760" cy="472" r="88" fill="#14532D" />
    <circle cx="760" cy="472" r="62" fill="#22C55E" />
    <circle cx="760" cy="472" r="34" fill="#DCFCE7" fill-opacity="0.72" />
  </g>
</svg>